<?xml version="1.0" standalone="no"?><!DOCTYPE svg PUBLIC "-//W3C//DTD SVG 1.1//EN" "http://www.w3.org/Graphics/SVG/1.1/DTD/svg11.dtd"><svg t="1783416041591" class="icon" viewBox="0 0 1024 1024" version="1.1" xmlns="http://www.w3.org/2000/svg" p-id="5225" xmlns:xlink="http://www.w3.org/1999/xlink" width="200" height="200"><path d="M905.582634 822.831856a44.968748 44.968748 0 0 1 0 63.405935 469.024042 469.024042 0 1 1-84.091559-729.393093l-8.094375-108.374683a44.968748 44.968748 0 0 1 89.937496-6.745312l15.289375 209.554365a44.968748 44.968748 0 0 1-76.446872 35.075624 379.086546 379.086546 0 1 0 0 536.027476 44.968748 44.968748 0 0 1 63.405935 0.449688z m-197.862492-438.445293l66.10406-7.195a44.968748 44.968748 0 0 0 39.572498-49.465623 44.968748 44.968748 0 0 0-49.465623-39.572498l-66.104059 7.194999a44.968748 44.968748 0 0 0 4.946562 89.937497z" fill="currentColor" p-id="5226"></path></svg>